<svg
  xmlns="http://www.w3.org/2000/svg"
  viewBox="0 0 24 24"
  width="24"
  height="24"
  fill="currentColor"
>
  <path d="M19.14 12.936a4.938 4.938 0 0 0 0-1.872l2.74-1.589a.75.75 0 0 0 .29-.874l-2.5-4.33a.75.75 0 0 0-.872-.29L16.25 6.228a4.97 4.97 0 0 0-1.872 0L11.59 4.778a.75.75 0 0 0-.874.29l-2.5 4.33a.75.75 0 0 0 .29.874l2.74 1.589a4.938 4.938 0 0 0 0 1.872l-2.74 1.589a.75.75 0 0 0-.29.874l2.5 4.33a.75.75 0 0 0 .872.29l2.5-4.33a.75.75 0 0 0-.29-.874l-2.74-1.589zM12 15.75a3.75 3.75 0 1 1 0-7.5 3.75 3.75 0 0 1 0 7.5z"/>
</svg>