<svg
  xmlns="http://www.w3.org/2000/svg"
  viewBox="0 0 24 24"
  width="24"
  height="24"
  fill="currentColor"
>
  <path d="M12 12c2.21 0 4-1.79 4-4s-1.79-4-4-4-4 1.79-4 4 1.79 4 4 4zm-6 2c-3.31 0-6 2.69-6 6v2h12v-2c0-3.31-2.69-6-6-6zm0-2c1.39 0 2.67.46 3.74 1.24-.38.79-.74 1.68-1.07 2.55-.5-.25-1.05-.41-1.62-.41-1.66 0-3 1.34-3 3v2h12v-2c0-1.66-1.34-3-3-3-.57 0-1.12.16-1.62.41-.33-.87-.69-1.76-1.07-2.55C10.67 12.46 11.95 12 13.34 12h1.66c1.71 0 3.15-1.22 3.6-2.85C18.61 9.28 19.31 8 20 8c1.39 0 2.67.46 3.74 1.24-.38.79-.74 1.68-1.07 2.55-.5-.25-1.05-.41-1.62-.41-1.66 0-3 1.34-3 3v2h12v-2c0-3.31-2.69-6-6-6z"/>
</svg>
