<svg xmlns="http://www.w3.org/2000/svg" width="24" height="24" viewBox="0 0 64 64">
  <path d="M32 2a14 14 0 11-14 14A14 14 0 0132 2zm0 25a11 11 0 10-11-11 11 11 0 0011 11z" fill="#6A60A9"/>
  <path d="M42 46a1 1 0 01-1-1V36a9 9 0 00-18 0v9a1 1 0 01-2 0V36a11 11 0 1122 0v9a1 1 0 01-1 1z" fill="#6A60A9"/>
  <path d="M54 62H10a1 1 0 01-1-1v-5a19 19 0 0119-19h8a19 19 0 0119 19v5a1 1 0 01-1 1zM11 60h42v-4a17 17 0 00-17-17h-8a17 17 0 00-17 17z" fill="#6A60A9"/>
  <path d="M51 46a1 1 0 01-1-1v-7a6 6 0 00-12 0v7a1 1 0 01-2 0v-7a8 8 0 0116 0v7a1 1 0 01-1 1zM15 46a1 1 0 01-1-1v-7a8 8 0 0116 0v7a1 1 0 01-2 0v-7a6 6 0 00-12 0v7a1 1 0 01-1 1z" fill="#6A60A9"/>
</svg>
