<svg xmlns="http://www.w3.org/2000/svg" width="24" height="24" viewBox="0 0 24 24" fill="none" stroke="currentColor" stroke-width="2" stroke-linecap="round" stroke-linejoin="round" class="feather feather-user-check">
  <path d="M12 12c2.21 0 4-1.79 4-4s-1.79-4-4-4-4 1.79-4 4 1.79 4 4 4z"/>
  <path d="M15 12c1.3 0 2.58-.43 3.56-1.15a4.985 4.985 0 0 0 1.44-2.35 4.985 4.985 0 0 0-1.44-2.35A4.982 4.982 0 0 0 15 4c-1.3 0-2.58.43-3.56 1.15a4.985 4.985 0 0 0-1.44 2.35 4.985 4.985 0 0 0 1.44 2.35A4.982 4.982 0 0 0 15 12z"/>
  <path d="M8 20a4 4 0 0 1 4-4h4a4 4 0 0 1 4 4"/>
  <path d="M16 12l-2 2-1-1"/>
</svg>
