<svg width="24" height="24" viewBox="0 0 24 24" fill="none" xmlns="http://www.w3.org/2000/svg">
  <circle cx="12" cy="12" r="3" fill="#1877F2"/>
  <path d="M21 12.87V11.13L18.87 10.36C18.72 9.85 18.49 9.36 18.19 8.9L19.41 6.78L17.22 4.59L15.1 5.81C14.64 5.51 14.15 5.28 13.64 5.13L12.87 3H11.13L10.36 5.13C9.85 5.28 9.36 5.51 8.9 5.81L6.78 4.59L4.59 6.78L5.81 8.9C5.51 9.36 5.28 9.85 5.13 10.36L3 11.13V12.87L5.13 13.64C5.28 14.15 5.51 14.64 5.81 15.1L4.59 17.22L6.78 19.41L8.9 18.19C9.36 18.49 9.85 18.72 10.36 18.87L11.13 21H12.87L13.64 18.87C14.15 18.72 14.64 18.49 15.1 18.19L17.22 19.41L19.41 17.22L18.19 15.1C18.49 14.64 18.72 14.15 18.87 13.64L21 12.87ZM12 15.5C10.62 15.5 9.5 14.38 9.5 13C9.5 11.62 10.62 10.5 12 10.5C13.38 10.5 14.5 11.62 14.5 13C14.5 14.38 13.38 15.5 12 15.5Z" fill="#1877F2"/>
</svg>
