<?xml version="1.0" encoding="UTF-8"?>
<svg version="1.1" xmlns="http://www.w3.org/2000/svg" width="1080" height="1080">
<path d="M0 0 C356.4 0 712.8 0 1080 0 C1080 356.4 1080 712.8 1080 1080 C723.6 1080 367.2 1080 0 1080 C0 723.6 0 367.2 0 0 Z " fill="#000000" transform="translate(0,0)"/>
<path d="M0 0 C0.77279297 -0.00773438 1.54558594 -0.01546875 2.34179688 -0.0234375 C14.34985251 0.01716455 25.61565297 5.80315297 34.0625 14.25 C42.09048363 23.97927817 45.77742927 33.28919133 45.390625 45.95703125 C44.9458814 50.42035099 43.75669455 54.12898623 42.0625 58.25 C41.48916474 59.93384951 40.92645881 61.62135965 40.375 63.3125 C39.9375 64.625 39.5 65.9375 39.0625 67.25 C38.4025 67.25 37.7425 67.25 37.0625 67.25 C36.815 67.806875 36.5675 68.36375 36.3125 68.9375 C33.37489055 74.37207748 29.37640589 78.17421703 24.0625 81.25 C23.4025 81.25 22.7425 81.25 22.0625 81.25 C21.7325 82.24 21.4025 83.23 21.0625 84.25 C20.4025 84.25 19.7425 84.25 19.0625 84.25 C21.25247128 90.68533461 23.72464832 96.75446398 26.84375 102.79296875 C28.43598154 106.00294835 29.73843511 109.29076067 31.03515625 112.62890625 C32.14496726 115.46040125 33.31803454 118.26039496 34.5 121.0625 C36.29677368 125.34499431 37.9872038 129.65431375 39.625 134 C41.23260439 138.23000905 42.99601639 142.22585048 45.09765625 146.2265625 C46.26825437 148.68150107 47.15944941 151.18491466 48.0625 153.75 C49.47585927 157.7637195 51.10557122 161.47311161 53.06640625 165.2421875 C55.49502263 170.13751621 57.33794635 175.31229566 59.25 180.42578125 C61.50797616 186.43058659 63.93783522 192.17320293 66.8828125 197.87109375 C68.43840269 201.00802894 69.69969885 204.22553913 70.96484375 207.48828125 C72.26229244 210.75268063 73.6609778 213.96645774 75.0625 217.1875 C76.89248596 221.4207758 78.60405452 225.64652449 80.125 230 C81.70285506 234.47168052 83.67393101 238.59207918 85.84765625 242.80078125 C87.41570749 245.96209355 88.68982776 249.20008212 89.96484375 252.48828125 C91.26229244 255.75268063 92.6609778 258.96645774 94.0625 262.1875 C96.30385117 267.37591745 98.31085833 272.59556653 100.1953125 277.921875 C101.27394086 280.81765204 102.63192146 283.51324105 104.0625 286.25 C105.9173037 290.43611774 107.6004053 294.63982332 109.15527344 298.94506836 C111.58847387 305.68093972 114.28328321 312.02727293 117.765625 318.30859375 C119.47360329 322.18241198 120.26597486 326.1059011 121.0625 330.25 C133.46038512 321.33642924 145.78296141 312.3257454 158.0625 303.25 C168.1026124 295.82940327 178.16047508 288.43803961 188.29321289 281.14428711 C193.74356937 277.2160112 199.15933174 273.24287964 204.5625 269.25 C210.70266269 264.71248989 216.86604661 260.21033424 223.0625 255.75 C232.45030773 248.99016251 241.75946495 242.12582656 251.0625 235.25 C261.0954305 227.83471138 271.14670467 220.44951263 281.27124023 213.15966797 C286.93452071 209.07702607 292.56771263 204.95478458 298.1875 200.8125 C298.95707031 200.2453125 299.72664062 199.678125 300.51953125 199.09375 C305.38461826 195.50224598 310.23011016 191.88536832 315.0625 188.25 C314.48790594 184.50523179 313.38430757 181.94611736 311.5 178.6875 C307.23883764 169.51916817 307.67859058 158.36171482 309.87890625 148.64453125 C313.94520927 137.69243286 324.32941091 126.24213446 335.0625 121.25 C346.10179411 117.76736555 361.478986 117.2087853 372.0625 122.25 C382.13865418 128.65886131 391.24579546 136.58784725 395.0625 148.25 C395.59652505 151.0172207 395.90918633 153.45878929 396.0625 156.25 C396.12695312 157.30574219 396.19140625 158.36148438 396.2578125 159.44921875 C396.72097164 173.48294073 392.59383712 183.71678776 383.359375 194.1796875 C374.77185824 202.58051912 364.19120126 206.87575758 352.3125 206.75 C348.3937334 206.65828766 344.81438818 206.50062939 341.0625 205.25 C340.95437988 205.87946533 340.84625977 206.50893066 340.73486328 207.1574707 C339.35747485 214.96995586 337.68115613 222.69950448 335.9375 230.4375 C335.66035156 231.67564453 335.38320313 232.91378906 335.09765625 234.18945312 C334.42122265 237.21007901 333.74280124 240.23024327 333.0625 243.25 C332.4025 243.25 331.7425 243.25 331.0625 243.25 C330.95808594 244.31476563 330.85367188 245.37953125 330.74609375 246.4765625 C330.01717174 252.30025224 328.54022033 257.93696816 327.125 263.625 C325.26887186 271.13983509 323.50146718 278.6429655 322.0625 286.25 C321.4025 286.25 320.7425 286.25 320.0625 286.25 C319.95808594 287.31476563 319.85367188 288.37953125 319.74609375 289.4765625 C319.01717174 295.30025224 317.54022033 300.93696816 316.125 306.625 C314.26887186 314.13983509 312.50146718 321.6429655 311.0625 329.25 C310.4025 329.25 309.7425 329.25 309.0625 329.25 C308.94648437 330.3328125 308.83046875 331.415625 308.7109375 332.53125 C308.02423575 338.00558818 306.86139235 343.3626726 305.6875 348.75 C305.47867188 349.74386719 305.26984375 350.73773437 305.0546875 351.76171875 C304.14192949 355.97487617 303.23082486 360.06446584 301.62109375 364.0703125 C299.23683746 370.04934082 297.97383275 376.37468132 296.5 382.625 C296.04463867 384.51992188 296.04463867 384.51992188 295.58007812 386.453125 C293.93225915 393.3603226 292.38287704 400.27246396 291.0625 407.25 C290.4025 407.25 289.7425 407.25 289.0625 407.25 C288.93560791 408.39597656 288.80871582 409.54195312 288.67797852 410.72265625 C288.12679476 415.11812794 287.22538797 419.37769835 286.21484375 423.6875 C286.03869034 424.45304199 285.86253693 425.21858398 285.68104553 426.00732422 C285.12442949 428.42242992 284.56231572 430.83621574 284 433.25 C283.61877448 434.89965501 283.23791171 436.5493939 282.85742188 438.19921875 C281.9299685 442.21712683 280.9975866 446.23386184 280.0625 450.25 C279.4025 450.25 278.7425 450.25 278.0625 450.25 C277.95808594 451.31476563 277.85367188 452.37953125 277.74609375 453.4765625 C277.01717174 459.30025224 275.54022033 464.93696816 274.125 470.625 C273.59317418 472.77818287 273.06320219 474.93182454 272.53515625 477.0859375 C272.30062744 478.03001465 272.06609863 478.9740918 271.82446289 479.94677734 C270.80648576 484.35985985 269.95070421 488.80897895 269.0625 493.25 C92.5125 493.25 -84.0375 493.25 -265.9375 493.25 C-273.68881965 464.45938416 -273.68881965 464.45938416 -275.9375 452.25 C-276.32464267 450.49805691 -276.71932325 448.74774437 -277.125 447 C-277.9375 443.25 -277.9375 443.25 -277.9375 440.25 C-278.5975 440.25 -279.2575 440.25 -279.9375 440.25 C-280.24772095 439.03884521 -280.24772095 439.03884521 -280.56420898 437.80322266 C-281.3320917 434.80975234 -282.10200004 431.81681255 -282.87329102 428.82421875 C-283.37087438 426.89102868 -283.86611119 424.95723512 -284.36132812 423.0234375 C-284.67392578 421.81171875 -284.98652344 420.6 -285.30859375 419.3515625 C-285.7406311 417.67054443 -285.7406311 417.67054443 -286.18139648 415.95556641 C-286.82841837 413.30984994 -286.82841837 413.30984994 -287.9375 411.25 C-287.977492 409.25039988 -287.98096799 407.24952758 -287.9375 405.25 C-288.5975 405.25 -289.2575 405.25 -289.9375 405.25 C-290.15792969 403.95255859 -290.15792969 403.95255859 -290.3828125 402.62890625 C-292.14656942 392.72551253 -294.37399085 382.97627132 -296.77978516 373.20922852 C-298.15142248 367.62293182 -299.42132011 362.04759144 -300.46289062 356.38964844 C-300.93021315 354.2828508 -301.57542871 352.3766759 -302.375 350.375 C-305.44833893 342.66060885 -306.93916774 334.47901793 -308.33203125 326.32421875 C-309.23390948 321.74500475 -310.4156346 317.24045273 -311.61694336 312.73144531 C-312.48328891 309.4103857 -312.9375 306.71506775 -312.9375 303.25 C-313.5975 303.25 -314.2575 303.25 -314.9375 303.25 C-316.89435037 295.9222199 -318.47086553 288.59192379 -319.80517578 281.13183594 C-320.7161658 276.15079696 -321.92001291 271.32826507 -323.38671875 266.484375 C-323.9375 264.25 -323.9375 264.25 -323.9375 260.25 C-324.5975 260.25 -325.2575 260.25 -325.9375 260.25 C-327.89435037 252.9222199 -329.47086553 245.59192379 -330.80517578 238.13183594 C-331.7161658 233.15079696 -332.92001291 228.32826507 -334.38671875 223.484375 C-334.9375 221.25 -334.9375 221.25 -334.9375 217.25 C-335.5975 217.25 -336.2575 217.25 -336.9375 217.25 C-338.07514351 212.98383684 -338.9375 209.68513689 -338.9375 205.25 C-339.77925781 205.40855469 -340.62101562 205.56710937 -341.48828125 205.73046875 C-355.23115529 207.80045997 -365.93468245 206.05857319 -377.3125 197.9375 C-382.83271702 193.57001312 -387.08060859 189.87530982 -388.75 182.8125 C-388.811875 181.966875 -388.87375 181.12125 -388.9375 180.25 C-389.9275 179.92 -390.9175 179.59 -391.9375 179.25 C-394.13985989 164.61277733 -396.26642941 149.47793975 -387.0703125 136.72265625 C-379.72728117 128.20958147 -370.59314459 120.0179833 -358.91162109 119.08886719 C-341.92022484 118.35670256 -331.28188575 121.13342907 -317.9375 132.25 C-313.9375 136.57432432 -313.9375 136.57432432 -313.9375 141.25 C-312.9475 141.58 -311.9575 141.91 -310.9375 142.25 C-305.30515588 153.51468824 -305.8508022 165.66000467 -308.98828125 177.62890625 C-309.9375 180.25 -309.9375 180.25 -311.60546875 182.83984375 C-313.14148579 185.08132323 -313.14148579 185.08132323 -312.74487305 187.21557617 C-311.72651432 189.78164307 -310.59245436 190.61692326 -308.3515625 192.2109375 C-307.59520508 192.7577417 -306.83884766 193.3045459 -306.05957031 193.86791992 C-304.82352051 194.73767456 -304.82352051 194.73767456 -303.5625 195.625 C-301.82009934 196.87861003 -300.07791797 198.1325249 -298.3359375 199.38671875 C-296.99160645 200.34650635 -296.99160645 200.34650635 -295.62011719 201.32568359 C-291.44471536 204.32081621 -287.31784017 207.38070115 -283.1875 210.4375 C-281.60059018 211.60721835 -280.01335586 212.77649659 -278.42578125 213.9453125 C-277.6673291 214.50379883 -276.90887695 215.06228516 -276.12744141 215.63769531 C-275.40476074 216.16975586 -274.68208008 216.70181641 -273.9375 217.25 C-273.2779834 217.7356543 -272.6184668 218.22130859 -271.93896484 218.72167969 C-265.2966532 223.61061265 -258.63628717 228.47214474 -251.94116211 233.28857422 C-245.8160804 237.69551487 -239.71211986 242.10250092 -233.79296875 246.78515625 C-230.55761683 249.33938145 -227.24122422 251.78531685 -223.9375 254.25 C-222.02050616 255.68706366 -220.10386758 257.12460131 -218.1875 258.5625 C-217.16914063 259.325625 -216.15078125 260.08875 -215.1015625 260.875 C-212.96877861 262.47590445 -210.83828706 264.07942474 -208.7109375 265.6875 C-207.67195312 266.47125 -206.63296875 267.255 -205.5625 268.0625 C-204.62664062 268.77019531 -203.69078125 269.47789062 -202.7265625 270.20703125 C-200.77682399 271.63520105 -198.78981149 273.01323414 -196.77734375 274.3515625 C-193.9375 276.25 -193.9375 276.25 -190.875 278.8125 C-188.13867835 281.21348443 -188.13867835 281.21348443 -185.61328125 282.625 C-182.61186771 284.44775625 -179.9445629 286.51256308 -177.1875 288.6875 C-171.38107147 293.2188739 -165.41744883 297.48890618 -159.38452148 301.7121582 C-154.63048442 305.04408843 -149.92290239 308.43029497 -145.25 311.875 C-144.02998201 312.77087977 -142.80993019 313.66671345 -141.58984375 314.5625 C-139.72604124 315.93186527 -137.86464945 317.30413546 -136.00830078 318.68359375 C-134.11538829 320.0886422 -132.21474402 321.48262284 -130.3125 322.875 C-129.74442627 323.30119629 -129.17635254 323.72739258 -128.59106445 324.16650391 C-125.41222314 326.47743632 -122.8667533 327.8264002 -118.9375 328.25 C-116.70741401 322.73084863 -114.53692502 317.19530107 -112.4375 311.625 C-110.80665231 307.35586966 -109.02480785 303.31379085 -106.90234375 299.2734375 C-105.30429244 295.92205865 -104.16801814 292.40553597 -102.9375 288.90625 C-101.81162717 285.9156503 -100.41935895 283.16854362 -98.9375 280.34375 C-97.75325941 277.86424627 -96.8489302 275.34187963 -95.9375 272.75 C-94.53242172 268.75430864 -92.90137872 265.08739381 -90.9375 261.34375 C-89.75325941 258.86424627 -88.8489302 256.34187963 -87.9375 253.75 C-86.53242172 249.75430864 -84.90137872 246.08739381 -82.9375 242.34375 C-81.75325941 239.86424627 -80.8489302 237.34187963 -79.9375 234.75 C-78.53242172 230.75430864 -76.90137872 227.08739381 -74.9375 223.34375 C-73.75325941 220.86424627 -72.8489302 218.34187963 -71.9375 215.75 C-70.53242172 211.75430864 -68.90137872 208.08739381 -66.9375 204.34375 C-65.75325941 201.86424627 -64.8489302 199.34187963 -63.9375 196.75 C-62.53242172 192.75430864 -60.90137872 189.08739381 -58.9375 185.34375 C-57.75325941 182.86424627 -56.8489302 180.34187963 -55.9375 177.75 C-54.53242172 173.75430864 -52.90137872 170.08739381 -50.9375 166.34375 C-49.75325941 163.86424627 -48.8489302 161.34187963 -47.9375 158.75 C-46.53242172 154.75430864 -44.90137872 151.08739381 -42.9375 147.34375 C-41.75325941 144.86424627 -40.8489302 142.34187963 -39.9375 139.75 C-38.77894279 136.45535295 -37.55970653 133.34233121 -35.9375 130.25 C-33.90101411 126.35135775 -32.46875188 122.32537296 -31.00390625 118.18359375 C-28.37457912 110.95053635 -25.35515526 103.90911455 -21.8515625 97.05859375 C-19.65672676 92.71582048 -17.9375 89.23115046 -17.9375 84.25 C-19.64936968 82.76099753 -19.64936968 82.76099753 -21.9375 81.5625 C-27.20984498 78.29548433 -31.26776178 74.24964335 -34.9375 69.25 C-34.9375 68.59 -34.9375 67.93 -34.9375 67.25 C-35.5975 67.25 -36.2575 67.25 -36.9375 67.25 C-42.802133 54.03363063 -44.12100739 40.92574155 -39.96484375 26.88671875 C-35.87779823 16.39715324 -27.13318124 7.68032305 -16.921875 3.00390625 C-16.26703125 2.75511719 -15.6121875 2.50632813 -14.9375 2.25 C-13.61298828 1.71439453 -13.61298828 1.71439453 -12.26171875 1.16796875 C-8.09037968 0.01607136 -4.30372624 -0.04285868 0 0 Z " fill="#D7BB72" transform="translate(538.9375,248.75)"/>
<path d="M0 0 C356.4 0 712.8 0 1080 0 C1080 356.4 1080 712.8 1080 1080 C723.6 1080 367.2 1080 0 1080 C0 723.6 0 367.2 0 0 Z M20 21 C19.90139605 23.26246707 19.87552928 25.52809419 19.8758015 27.79270893 C19.87452341 28.51615117 19.87324532 29.2395934 19.8719285 29.98495813 C19.8688299 32.44503131 19.87295058 34.90504207 19.87695217 37.36511326 C19.87621354 39.14057485 19.87503605 40.91603631 19.87345598 42.69149735 C19.8703667 47.61497751 19.8735783 52.53843726 19.87773425 57.4619159 C19.88114558 62.78907959 19.87879866 68.11624106 19.87715149 73.44340515 C19.87506612 82.80465874 19.8767337 92.165906 19.88078487 101.52715886 C19.88686722 115.62804375 19.88715642 129.72892478 19.88631957 143.82981075 C19.88507516 167.45623876 19.88837171 191.082664 19.89442444 214.70909119 C19.90259122 246.65530487 19.90452642 278.60151374 19.90539551 310.54772949 C19.91065292 387.38598689 19.92461393 464.2242435 19.9375 541.0625 C19.958125 712.641875 19.97875 884.22125 20 1061 C363.2 1061 706.4 1061 1060 1061 C1060 717.47 1060 373.94 1060 20 C888.585625 19.979375 717.17125 19.95875 540.5625 19.9375 C459.2114978 19.92384399 459.2114978 19.92384399 376.21704102 19.90991211 C327.8336716 19.90656881 327.8336716 19.90656881 279.45030212 19.90455627 C257.09304395 19.90358925 234.73578898 19.89960765 212.37853173 19.89387455 C188.16829603 19.88768437 163.95806246 19.88511685 139.74782598 19.88655505 C125.75641028 19.88727568 111.76500143 19.88525314 97.77358699 19.8791924 C88.55556418 19.87546821 79.33754595 19.87531168 70.11952283 19.87816466 C64.85629277 19.87968864 59.59307591 19.87956444 54.32984722 19.87511742 C49.54384685 19.87110498 44.75787007 19.87159677 39.97187011 19.87586016 C38.24046006 19.87658116 36.50904833 19.87558377 34.77764043 19.87276472 C32.4471629 19.86920702 30.11677153 19.87168034 27.7862969 19.8758015 C26.48994194 19.87564552 25.19358697 19.87548954 23.85794852 19.87532884 C21.10165446 19.6731394 21.10165446 19.6731394 20 21 Z " fill="#CAB16A" transform="translate(0,0)"/>
<path d="M0 0 C50.8957971 -0.01689947 101.79159408 -0.03303139 152.68739319 -0.04234314 C153.44005498 -0.0424812 154.19271677 -0.04261925 154.96818649 -0.04276149 C171.32354663 -0.04575405 187.67890679 -0.04852428 204.034267 -0.05106533 C212.05433882 -0.05231272 220.07441062 -0.05360927 228.09448242 -0.05493164 C229.29165528 -0.05512778 229.29165528 -0.05512778 230.51301345 -0.05532788 C256.40599107 -0.05959311 282.29896652 -0.0671073 308.19194283 -0.07629722 C334.78901595 -0.08571994 361.38608786 -0.09188315 387.98316262 -0.09391499 C391.73541878 -0.09420317 395.48767495 -0.0945288 399.23993111 -0.09487724 C399.97846604 -0.09494467 400.71700097 -0.09501209 401.47791575 -0.09508156 C413.39074208 -0.09626562 425.30356469 -0.10090998 437.2163895 -0.10683203 C449.17798281 -0.11270507 461.13957243 -0.11497156 473.10116713 -0.11350138 C479.58822389 -0.11285764 486.07526969 -0.11387949 492.56232452 -0.11920547 C498.49052084 -0.12403739 504.41869875 -0.12434003 510.34689588 -0.12089889 C512.50167772 -0.120473 514.65646067 -0.12177047 516.81124031 -0.12488318 C519.7199421 -0.12884366 522.62857573 -0.12676559 525.53727627 -0.12304783 C526.39136972 -0.12567484 527.24546317 -0.12830186 528.12543824 -0.13100848 C533.8858542 -0.1141458 533.8858542 -0.1141458 535 1 C535 21.13 535 41.26 535 62 C358.45 62 181.9 62 0 62 C0 41.54 0 21.08 0 0 Z " fill="#D8BB73" transform="translate(273,769)"/>
<path d="M0 0 C3.006818 1.33999498 4.99762609 2.79845291 7.25 5.1875 C9.61591236 7.68810539 12.09561082 9.96459472 14.703125 12.20703125 C19.95466851 16.7660835 24.77456486 21.72492123 29.64453125 26.68359375 C32.93660928 30.01178232 36.23580689 33.25631299 39.796875 36.296875 C45.41664122 41.13120145 50.54677019 46.4774598 55.75 51.75 C57.78351624 53.81023118 59.82041914 55.86702875 61.859375 57.921875 C62.75108398 58.82518555 63.64279297 59.72849609 64.56152344 60.65917969 C66.62298154 62.6380804 68.66831811 64.35737826 71 66 C70.34840055 68.87090846 69.45040044 71.47478375 68.3125 74.1875 C66.06210923 79.69849345 64.11080453 85.30026104 62.19458008 90.93432617 C60.74025 95.14453634 59.01039166 99.01664418 57 103 C56.15518797 105.25901149 55.34359636 107.53067425 54.5625 109.8125 C52.87198367 114.64037096 51.0565357 119.31500599 48.9140625 123.95703125 C47.44291773 127.24510269 46.23069683 130.61558373 45 134 C40.25561043 133.52556104 37.33822294 131.29204454 33.75 128.375 C32.96689453 127.75431641 32.96689453 127.75431641 32.16796875 127.12109375 C31.05792773 126.24108533 29.95029143 125.35803744 28.84472656 124.47241211 C23.02562675 119.82776005 17.12163909 115.30917257 11.11035156 110.91625977 C9.49178747 109.73079717 7.87944146 108.53681154 6.27246094 107.33569336 C2.53619936 104.54741112 -1.18115078 101.83735071 -5.15625 99.3984375 C-8.55106595 97.24978042 -11.42820953 95.14072973 -14 92 C-14.92624863 87.52492666 -14.37683569 83.70408839 -13.44970703 79.25830078 C-12.94246081 76.71105458 -12.57214551 74.16232606 -12.21484375 71.58984375 C-11.53583167 66.7158745 -10.78420393 61.85811871 -10 57 C-9.34 57 -8.68 57 -8 57 C-7.96261719 56.29359375 -7.92523438 55.5871875 -7.88671875 54.859375 C-7.38650463 47.0521114 -6.36893531 39.41829285 -5.16357422 31.69335938 C-3.89176949 23.48514723 -2.90893609 15.25527839 -2 7 C-1.34 7 -0.68 7 0 7 C0 4.69 0 2.38 0 0 Z " fill="#C9A661" transform="translate(368,414)"/>
<path d="M0 0 C0.08564209 0.70608398 0.17128418 1.41216797 0.25952148 2.13964844 C0.64958944 5.34342067 1.04350251 8.54670875 1.4375 11.75 C1.57220703 12.86117188 1.70691406 13.97234375 1.84570312 15.1171875 C1.97783203 16.18710937 2.10996094 17.25703125 2.24609375 18.359375 C2.36654053 19.34389648 2.4869873 20.32841797 2.61108398 21.34277344 C2.94159118 23.9270505 2.94159118 23.9270505 3.54321289 26.11816406 C4.25842825 29.06465257 4.05798972 31.98453453 4 35 C4.66 35 5.32 35 6 35 C6.21934204 36.67171265 6.21934204 36.67171265 6.44311523 38.37719727 C6.98877604 42.5351275 7.53496068 46.69298879 8.08129883 50.85083008 C8.31711757 52.64605887 8.55279665 54.44130602 8.78833008 56.23657227 C9.12804517 58.82573271 9.4682722 61.41482546 9.80859375 64.00390625 C9.91280136 64.79898087 10.01700897 65.59405548 10.12437439 66.41322327 C10.32156108 67.91193147 10.52024706 69.41044342 10.72067261 70.90872192 C10.98777904 72.90850371 11.24808154 74.90919074 11.50805664 76.90991211 C11.86129115 79.95959901 11.86129115 79.95959901 13.0625 82.4375 C14.388949 86.06312727 15.19833303 89.28558419 14 93 C12.3112793 94.44555664 12.3112793 94.44555664 10.07421875 95.78515625 C4.84429642 99.06549605 0.00786102 102.7280349 -4.875 106.5 C-14.13156788 113.60416591 -23.48093006 120.56984068 -32.90478516 127.45019531 C-34.36312544 128.52891171 -35.80997046 129.62327077 -37.24755859 130.72949219 C-37.96379395 131.28024414 -38.6800293 131.83099609 -39.41796875 132.3984375 C-40.05887451 132.89778809 -40.69978027 133.39713867 -41.36010742 133.91162109 C-43 135 -43 135 -45 135 C-47.48428337 130.38633088 -49.415159 125.93729603 -51 120.9375 C-52.1121278 117.45224911 -53.22304165 114.31516484 -55.125 111.1875 C-57.1223267 107.79204462 -57.95269042 104.78856306 -59 101 C-62.01706302 91.98985942 -65.23925663 83.12709483 -69.75 74.75 C-71.14710549 71.67636793 -71.49838944 70.32602372 -71 67 C-69.32898395 64.87923977 -67.74596868 63.13852412 -65.8125 61.2890625 C-65.27657227 60.75783783 -64.74064453 60.22661316 -64.18847656 59.67929077 C-62.47035908 57.98249413 -60.73544104 56.30405487 -59 54.625 C-57.86219113 53.50370927 -56.72546022 52.38132358 -55.58984375 51.2578125 C-50.49820224 46.24229557 -45.34709571 41.35939128 -39.91796875 36.70849609 C-35.93362782 33.15930849 -32.24139585 29.30145035 -28.5 25.5 C-23.39895412 20.31707537 -18.27531441 15.27294745 -12.75488281 10.53662109 C-9.61067201 7.78346823 -6.77185805 4.73753131 -3.8828125 1.72265625 C-2 0 -2 0 0 0 Z " fill="#E1CC82" transform="translate(712,413)"/>
<path d="M0 0 C50.8957971 -0.01689947 101.79159408 -0.03303139 152.68739319 -0.04234314 C153.44005498 -0.0424812 154.19271677 -0.04261925 154.96818649 -0.04276149 C171.32354663 -0.04575405 187.67890679 -0.04852428 204.034267 -0.05106533 C212.05433882 -0.05231272 220.07441062 -0.05360927 228.09448242 -0.05493164 C229.29165528 -0.05512778 229.29165528 -0.05512778 230.51301345 -0.05532788 C256.40599107 -0.05959311 282.29896652 -0.0671073 308.19194283 -0.07629722 C334.78901595 -0.08571994 361.38608786 -0.09188315 387.98316262 -0.09391499 C391.73541878 -0.09420317 395.48767495 -0.0945288 399.23993111 -0.09487724 C399.97846604 -0.09494467 400.71700097 -0.09501209 401.47791575 -0.09508156 C413.39074208 -0.09626562 425.30356469 -0.10090998 437.2163895 -0.10683203 C449.17798281 -0.11270507 461.13957243 -0.11497156 473.10116713 -0.11350138 C479.58822389 -0.11285764 486.07526969 -0.11387949 492.56232452 -0.11920547 C498.49052084 -0.12403739 504.41869875 -0.12434003 510.34689588 -0.12089889 C512.50167772 -0.120473 514.65646067 -0.12177047 516.81124031 -0.12488318 C519.7199421 -0.12884366 522.62857573 -0.12676559 525.53727627 -0.12304783 C526.39136972 -0.12567484 527.24546317 -0.12830186 528.12543824 -0.13100848 C533.8858542 -0.1141458 533.8858542 -0.1141458 535 1 C535 21.13 535 41.26 535 62 C358.45 62 181.9 62 0 62 C0 41.54 0 21.08 0 0 Z M99.66712952 1.40571976 C93.72640801 1.4325405 87.78568076 1.45769755 81.8449499 1.48234785 C69.65754548 1.53294079 57.4701858 1.58919434 45.28284264 1.65287781 C41.30574866 1.67357712 37.32865365 1.69224817 33.35154152 1.70909119 C28.84194288 1.72838848 24.3323963 1.75241381 19.82284403 1.78049481 C18.19536489 1.7898582 16.56787505 1.79753342 14.94037962 1.80341804 C12.75113581 1.81161856 10.56201711 1.82585314 8.37281799 1.84178162 C7.15661553 1.84823417 5.94041307 1.85468672 4.687356 1.8613348 C2.08174016 1.6950166 2.08174016 1.6950166 1 3 C1 22.14 1 41.28 1 61 C176.89 61 352.78 61 534 61 C534 41.2 534 21.4 534 1 C513.02578006 0.98664076 513.02578006 0.98664076 492.05155945 0.9744873 C491.32623753 0.97409205 490.60091561 0.97369679 489.85361423 0.97328955 C403.87180315 0.92680453 317.88973365 0.88144609 99.66712952 1.40571976 Z " fill="#8E7A49" transform="translate(273,769)"/>
<path d="M0 0 C-1.60875 0.61875 -1.60875 0.61875 -3.25 1.25 C-13.95015075 6.60007538 -21.32700294 16.51560823 -25.25 27.5 C-25.62125 28.7375 -25.62125 28.7375 -26 30 C-27.45397267 25.42604432 -26.12865071 22.1402622 -24 18 C-19.41699235 10.96224155 -9.39554241 -2.84234896 0 0 Z " fill="#886534" transform="translate(173,372)"/>
<path d="M0 0 C0.66 0.33 1.32 0.66 2 1 C-2.95 5.95 -7.9 10.9 -13 16 C-13 11.93645091 -11.47015238 10.94829419 -8.75 8 C-7.96109375 7.13375 -7.1721875 6.2675 -6.359375 5.375 C-4.3351828 3.33740256 -2.34982916 1.63841299 0 0 Z " fill="#A18A53" transform="translate(516,255)"/>
</svg>
